<mxfile host="app.diagrams.net" modified="2021-09-15T14:24:15.460Z" agent="5.0 (Macintosh; Intel Mac OS X 10_15_6) AppleWebKit/537.36 (KHTML, like Gecko) Chrome/93.0.4577.63 Safari/537.36" etag="hzNnhd3m6xeORLI9zdcW" version="15.2.7" type="github">
  <diagram id="6U_E-6VDy1a6VEWd9mH9" name="Page-1">
    <mxGraphModel dx="1345" dy="872" grid="1" gridSize="10" guides="1" tooltips="1" connect="1" arrows="1" fold="1" page="1" pageScale="1" pageWidth="827" pageHeight="1169" math="0" shadow="0">
      <root>
        <mxCell id="0" />
        <mxCell id="1" parent="0" />
        <mxCell id="Qtu6ctX9DmO8XfC7vcus-65" value="" style="rounded=0;whiteSpace=wrap;html=1;dashed=1;" vertex="1" parent="1">
          <mxGeometry x="120" y="670" width="1070" height="440" as="geometry" />
        </mxCell>
        <mxCell id="Qtu6ctX9DmO8XfC7vcus-26" value="" style="rounded=0;whiteSpace=wrap;html=1;dashed=1;" vertex="1" parent="1">
          <mxGeometry x="120" y="230" width="1070" height="440" as="geometry" />
        </mxCell>
        <mxCell id="Qtu6ctX9DmO8XfC7vcus-3" style="edgeStyle=orthogonalEdgeStyle;rounded=0;orthogonalLoop=1;jettySize=auto;html=1;exitX=1;exitY=0.5;exitDx=0;exitDy=0;entryX=0;entryY=0.5;entryDx=0;entryDy=0;" edge="1" parent="1" source="Qtu6ctX9DmO8XfC7vcus-1" target="Qtu6ctX9DmO8XfC7vcus-2">
          <mxGeometry relative="1" as="geometry" />
        </mxCell>
        <mxCell id="Qtu6ctX9DmO8XfC7vcus-1" value="fuse_inode" style="rounded=1;whiteSpace=wrap;html=1;fillColor=#f0a30a;strokeColor=#BD7000;fontColor=#000000;" vertex="1" parent="1">
          <mxGeometry x="200" y="350" width="100" height="30" as="geometry" />
        </mxCell>
        <mxCell id="Qtu6ctX9DmO8XfC7vcus-7" style="edgeStyle=orthogonalEdgeStyle;rounded=1;orthogonalLoop=1;jettySize=auto;html=1;exitX=1;exitY=0.5;exitDx=0;exitDy=0;entryX=0;entryY=0.5;entryDx=0;entryDy=0;" edge="1" parent="1" source="Qtu6ctX9DmO8XfC7vcus-2" target="Qtu6ctX9DmO8XfC7vcus-5">
          <mxGeometry relative="1" as="geometry" />
        </mxCell>
        <mxCell id="Qtu6ctX9DmO8XfC7vcus-8" style="edgeStyle=orthogonalEdgeStyle;rounded=1;orthogonalLoop=1;jettySize=auto;html=1;exitX=1;exitY=0.5;exitDx=0;exitDy=0;entryX=0;entryY=0.5;entryDx=0;entryDy=0;" edge="1" parent="1" source="Qtu6ctX9DmO8XfC7vcus-2" target="Qtu6ctX9DmO8XfC7vcus-4">
          <mxGeometry relative="1" as="geometry" />
        </mxCell>
        <mxCell id="Qtu6ctX9DmO8XfC7vcus-2" value="direct_io" style="rounded=1;whiteSpace=wrap;html=1;fillColor=#f0a30a;strokeColor=#BD7000;fontColor=#000000;" vertex="1" parent="1">
          <mxGeometry x="364" y="350" width="100" height="30" as="geometry" />
        </mxCell>
        <mxCell id="Qtu6ctX9DmO8XfC7vcus-21" style="edgeStyle=orthogonalEdgeStyle;rounded=1;orthogonalLoop=1;jettySize=auto;html=1;exitX=0.5;exitY=1;exitDx=0;exitDy=0;entryX=0.5;entryY=0;entryDx=0;entryDy=0;dashed=1;" edge="1" parent="1" source="Qtu6ctX9DmO8XfC7vcus-4" target="Qtu6ctX9DmO8XfC7vcus-18">
          <mxGeometry relative="1" as="geometry" />
        </mxCell>
        <mxCell id="Qtu6ctX9DmO8XfC7vcus-4" value="req" style="rounded=1;whiteSpace=wrap;html=1;fillColor=#f0a30a;strokeColor=#BD7000;fontColor=#000000;" vertex="1" parent="1">
          <mxGeometry x="520" y="390" width="70" height="30" as="geometry" />
        </mxCell>
        <mxCell id="Qtu6ctX9DmO8XfC7vcus-10" style="edgeStyle=orthogonalEdgeStyle;rounded=1;orthogonalLoop=1;jettySize=auto;html=1;exitX=1;exitY=0.5;exitDx=0;exitDy=0;" edge="1" parent="1" source="Qtu6ctX9DmO8XfC7vcus-5" target="Qtu6ctX9DmO8XfC7vcus-9">
          <mxGeometry relative="1" as="geometry" />
        </mxCell>
        <mxCell id="Qtu6ctX9DmO8XfC7vcus-5" value="iovec" style="rounded=1;whiteSpace=wrap;html=1;fillColor=#f0a30a;strokeColor=#BD7000;fontColor=#000000;" vertex="1" parent="1">
          <mxGeometry x="520" y="310" width="70" height="30" as="geometry" />
        </mxCell>
        <mxCell id="Qtu6ctX9DmO8XfC7vcus-16" style="edgeStyle=orthogonalEdgeStyle;rounded=1;orthogonalLoop=1;jettySize=auto;html=1;exitX=1;exitY=0.5;exitDx=0;exitDy=0;entryX=0;entryY=0;entryDx=0;entryDy=0;dashed=1;" edge="1" parent="1" source="Qtu6ctX9DmO8XfC7vcus-9" target="Qtu6ctX9DmO8XfC7vcus-11">
          <mxGeometry relative="1" as="geometry">
            <Array as="points">
              <mxPoint x="715" y="325" />
              <mxPoint x="715" y="270" />
            </Array>
          </mxGeometry>
        </mxCell>
        <mxCell id="Qtu6ctX9DmO8XfC7vcus-17" style="edgeStyle=orthogonalEdgeStyle;rounded=1;orthogonalLoop=1;jettySize=auto;html=1;exitX=1;exitY=0.5;exitDx=0;exitDy=0;entryX=0;entryY=1;entryDx=0;entryDy=0;dashed=1;" edge="1" parent="1" source="Qtu6ctX9DmO8XfC7vcus-9" target="Qtu6ctX9DmO8XfC7vcus-15">
          <mxGeometry relative="1" as="geometry">
            <Array as="points">
              <mxPoint x="715" y="325" />
              <mxPoint x="715" y="390" />
            </Array>
          </mxGeometry>
        </mxCell>
        <mxCell id="Qtu6ctX9DmO8XfC7vcus-9" value="page" style="rounded=1;whiteSpace=wrap;html=1;" vertex="1" parent="1">
          <mxGeometry x="620" y="310" width="70" height="30" as="geometry" />
        </mxCell>
        <mxCell id="Qtu6ctX9DmO8XfC7vcus-11" value="" style="rounded=0;whiteSpace=wrap;html=1;" vertex="1" parent="1">
          <mxGeometry x="740" y="270" width="60" height="30" as="geometry" />
        </mxCell>
        <mxCell id="Qtu6ctX9DmO8XfC7vcus-13" value="" style="rounded=0;whiteSpace=wrap;html=1;" vertex="1" parent="1">
          <mxGeometry x="740" y="300" width="60" height="30" as="geometry" />
        </mxCell>
        <mxCell id="Qtu6ctX9DmO8XfC7vcus-14" value="" style="rounded=0;whiteSpace=wrap;html=1;" vertex="1" parent="1">
          <mxGeometry x="740" y="330" width="60" height="30" as="geometry" />
        </mxCell>
        <mxCell id="Qtu6ctX9DmO8XfC7vcus-15" value="" style="rounded=0;whiteSpace=wrap;html=1;" vertex="1" parent="1">
          <mxGeometry x="740" y="360" width="60" height="30" as="geometry" />
        </mxCell>
        <mxCell id="Qtu6ctX9DmO8XfC7vcus-18" value="" style="rounded=0;whiteSpace=wrap;html=1;fillColor=#6d8764;strokeColor=#3A5431;fontColor=#ffffff;" vertex="1" parent="1">
          <mxGeometry x="520" y="470" width="70" height="30" as="geometry" />
        </mxCell>
        <mxCell id="Qtu6ctX9DmO8XfC7vcus-19" value="" style="rounded=0;whiteSpace=wrap;html=1;fillColor=#6d8764;strokeColor=#3A5431;fontColor=#ffffff;" vertex="1" parent="1">
          <mxGeometry x="520" y="500" width="70" height="30" as="geometry" />
        </mxCell>
        <mxCell id="Qtu6ctX9DmO8XfC7vcus-23" style="edgeStyle=orthogonalEdgeStyle;rounded=1;orthogonalLoop=1;jettySize=auto;html=1;exitX=0.5;exitY=1;exitDx=0;exitDy=0;entryX=0.5;entryY=0;entryDx=0;entryDy=0;dashed=1;entryPerimeter=0;" edge="1" parent="1" source="Qtu6ctX9DmO8XfC7vcus-20" target="Qtu6ctX9DmO8XfC7vcus-22">
          <mxGeometry relative="1" as="geometry" />
        </mxCell>
        <mxCell id="Qtu6ctX9DmO8XfC7vcus-20" value="" style="rounded=0;whiteSpace=wrap;html=1;fillColor=#6d8764;strokeColor=#3A5431;fontColor=#ffffff;" vertex="1" parent="1">
          <mxGeometry x="520" y="530" width="70" height="30" as="geometry" />
        </mxCell>
        <mxCell id="Qtu6ctX9DmO8XfC7vcus-25" style="edgeStyle=orthogonalEdgeStyle;rounded=1;orthogonalLoop=1;jettySize=auto;html=1;exitX=0.5;exitY=1;exitDx=0;exitDy=0;entryX=0.5;entryY=0;entryDx=0;entryDy=0;" edge="1" parent="1" source="Qtu6ctX9DmO8XfC7vcus-22" target="Qtu6ctX9DmO8XfC7vcus-24">
          <mxGeometry relative="1" as="geometry" />
        </mxCell>
        <mxCell id="Qtu6ctX9DmO8XfC7vcus-22" value="req" style="rounded=1;whiteSpace=wrap;html=1;fillColor=#f0a30a;strokeColor=#BD7000;fontColor=#000000;" vertex="1" parent="1">
          <mxGeometry x="520" y="620" width="70" height="30" as="geometry" />
        </mxCell>
        <mxCell id="Qtu6ctX9DmO8XfC7vcus-24" value="fuse server" style="rounded=0;whiteSpace=wrap;html=1;fillColor=#b0e3e6;strokeColor=#0e8088;" vertex="1" parent="1">
          <mxGeometry x="495" y="710" width="120" height="40" as="geometry" />
        </mxCell>
        <mxCell id="Qtu6ctX9DmO8XfC7vcus-39" style="edgeStyle=orthogonalEdgeStyle;rounded=1;orthogonalLoop=1;jettySize=auto;html=1;exitX=0.5;exitY=1;exitDx=0;exitDy=0;entryX=0;entryY=0;entryDx=0;entryDy=0;fontSize=16;fontColor=#FF0000;" edge="1" parent="1" source="Qtu6ctX9DmO8XfC7vcus-29" target="Qtu6ctX9DmO8XfC7vcus-33">
          <mxGeometry relative="1" as="geometry" />
        </mxCell>
        <mxCell id="Qtu6ctX9DmO8XfC7vcus-29" value="file" style="rounded=1;whiteSpace=wrap;html=1;fillColor=#f0a30a;strokeColor=#BD7000;fontColor=#000000;" vertex="1" parent="1">
          <mxGeometry x="385" y="820" width="70" height="30" as="geometry" />
        </mxCell>
        <mxCell id="Qtu6ctX9DmO8XfC7vcus-30" value="DISK" style="text;html=1;strokeColor=none;fillColor=none;align=center;verticalAlign=middle;whiteSpace=wrap;rounded=0;dashed=1;fontColor=#FF0000;" vertex="1" parent="1">
          <mxGeometry x="335" y="825" width="40" height="20" as="geometry" />
        </mxCell>
        <mxCell id="Qtu6ctX9DmO8XfC7vcus-32" value="KERNEL" style="text;html=1;strokeColor=none;fillColor=none;align=center;verticalAlign=middle;whiteSpace=wrap;rounded=0;dashed=1;fontColor=#FF0000;" vertex="1" parent="1">
          <mxGeometry x="260" y="590" width="40" height="20" as="geometry" />
        </mxCell>
        <mxCell id="Qtu6ctX9DmO8XfC7vcus-33" value="" style="rounded=0;whiteSpace=wrap;html=1;fillColor=#76608a;strokeColor=#432D57;fontColor=#ffffff;" vertex="1" parent="1">
          <mxGeometry x="335" y="890" width="40" height="30" as="geometry" />
        </mxCell>
        <mxCell id="Qtu6ctX9DmO8XfC7vcus-34" value="" style="rounded=0;whiteSpace=wrap;html=1;fillColor=#76608a;strokeColor=#432D57;fontColor=#ffffff;" vertex="1" parent="1">
          <mxGeometry x="375" y="890" width="80" height="30" as="geometry" />
        </mxCell>
        <mxCell id="Qtu6ctX9DmO8XfC7vcus-35" value="" style="rounded=0;whiteSpace=wrap;html=1;fillColor=#76608a;strokeColor=#432D57;fontColor=#ffffff;" vertex="1" parent="1">
          <mxGeometry x="415" y="890" width="40" height="30" as="geometry" />
        </mxCell>
        <mxCell id="Qtu6ctX9DmO8XfC7vcus-36" value="" style="rounded=0;whiteSpace=wrap;html=1;" vertex="1" parent="1">
          <mxGeometry x="455" y="890" width="40" height="30" as="geometry" />
        </mxCell>
        <mxCell id="Qtu6ctX9DmO8XfC7vcus-38" value="" style="rounded=0;whiteSpace=wrap;html=1;fillColor=#76608a;strokeColor=#432D57;fontColor=#ffffff;" vertex="1" parent="1">
          <mxGeometry x="455" y="890" width="10" height="30" as="geometry" />
        </mxCell>
        <mxCell id="Qtu6ctX9DmO8XfC7vcus-40" style="edgeStyle=orthogonalEdgeStyle;rounded=1;orthogonalLoop=1;jettySize=auto;html=1;exitX=0.5;exitY=1;exitDx=0;exitDy=0;entryX=1;entryY=0;entryDx=0;entryDy=0;fontSize=16;fontColor=#FF0000;" edge="1" parent="1" source="Qtu6ctX9DmO8XfC7vcus-29" target="Qtu6ctX9DmO8XfC7vcus-36">
          <mxGeometry relative="1" as="geometry">
            <mxPoint x="430" y="860" as="sourcePoint" />
            <mxPoint x="345" y="900" as="targetPoint" />
          </mxGeometry>
        </mxCell>
        <mxCell id="Qtu6ctX9DmO8XfC7vcus-42" style="edgeStyle=orthogonalEdgeStyle;rounded=1;orthogonalLoop=1;jettySize=auto;html=1;exitX=0.5;exitY=0;exitDx=0;exitDy=0;entryX=0;entryY=1;entryDx=0;entryDy=0;fontSize=16;fontColor=#FF0000;dashed=1;" edge="1" parent="1" source="Qtu6ctX9DmO8XfC7vcus-41" target="Qtu6ctX9DmO8XfC7vcus-33">
          <mxGeometry relative="1" as="geometry" />
        </mxCell>
        <mxCell id="Qtu6ctX9DmO8XfC7vcus-43" style="edgeStyle=orthogonalEdgeStyle;rounded=1;orthogonalLoop=1;jettySize=auto;html=1;exitX=0.5;exitY=0;exitDx=0;exitDy=0;entryX=1;entryY=1;entryDx=0;entryDy=0;fontSize=16;fontColor=#FF0000;dashed=1;" edge="1" parent="1" source="Qtu6ctX9DmO8XfC7vcus-41" target="Qtu6ctX9DmO8XfC7vcus-33">
          <mxGeometry relative="1" as="geometry" />
        </mxCell>
        <mxCell id="Qtu6ctX9DmO8XfC7vcus-41" value="4K" style="text;html=1;strokeColor=none;fillColor=none;align=center;verticalAlign=middle;whiteSpace=wrap;rounded=0;dashed=1;fontColor=#FF0000;" vertex="1" parent="1">
          <mxGeometry x="335" y="960" width="40" height="20" as="geometry" />
        </mxCell>
        <mxCell id="Qtu6ctX9DmO8XfC7vcus-70" style="edgeStyle=orthogonalEdgeStyle;rounded=1;orthogonalLoop=1;jettySize=auto;html=1;exitX=0;exitY=1;exitDx=0;exitDy=0;entryX=1;entryY=0;entryDx=0;entryDy=0;dashed=1;fontSize=16;fontColor=#FF0000;strokeColor=#FF0000;strokeWidth=1;" edge="1" parent="1" source="Qtu6ctX9DmO8XfC7vcus-44" target="Qtu6ctX9DmO8XfC7vcus-11">
          <mxGeometry relative="1" as="geometry">
            <Array as="points">
              <mxPoint x="667" y="960" />
              <mxPoint x="1050" y="960" />
              <mxPoint x="1050" y="270" />
            </Array>
          </mxGeometry>
        </mxCell>
        <mxCell id="Qtu6ctX9DmO8XfC7vcus-44" value="" style="rounded=0;whiteSpace=wrap;html=1;fillColor=#76608a;strokeColor=#432D57;fontColor=#ffffff;" vertex="1" parent="1">
          <mxGeometry x="667" y="890" width="40" height="30" as="geometry" />
        </mxCell>
        <mxCell id="Qtu6ctX9DmO8XfC7vcus-45" value="" style="rounded=0;whiteSpace=wrap;html=1;fillColor=#76608a;strokeColor=#432D57;fontColor=#ffffff;" vertex="1" parent="1">
          <mxGeometry x="707" y="890" width="40" height="30" as="geometry" />
        </mxCell>
        <mxCell id="Qtu6ctX9DmO8XfC7vcus-46" value="" style="rounded=0;whiteSpace=wrap;html=1;fillColor=#76608a;strokeColor=#432D57;fontColor=#ffffff;" vertex="1" parent="1">
          <mxGeometry x="747" y="890" width="40" height="30" as="geometry" />
        </mxCell>
        <mxCell id="Qtu6ctX9DmO8XfC7vcus-47" value="" style="rounded=0;whiteSpace=wrap;html=1;" vertex="1" parent="1">
          <mxGeometry x="787" y="890" width="40" height="30" as="geometry" />
        </mxCell>
        <mxCell id="Qtu6ctX9DmO8XfC7vcus-48" value="" style="rounded=0;whiteSpace=wrap;html=1;" vertex="1" parent="1">
          <mxGeometry x="627" y="890" width="40" height="30" as="geometry" />
        </mxCell>
        <mxCell id="Qtu6ctX9DmO8XfC7vcus-49" value="" style="rounded=0;whiteSpace=wrap;html=1;fillColor=#e51400;strokeColor=#B20000;fontColor=#ffffff;" vertex="1" parent="1">
          <mxGeometry x="627" y="890" width="10" height="30" as="geometry" />
        </mxCell>
        <mxCell id="Qtu6ctX9DmO8XfC7vcus-69" style="edgeStyle=orthogonalEdgeStyle;rounded=1;orthogonalLoop=1;jettySize=auto;html=1;exitX=1;exitY=1;exitDx=0;exitDy=0;entryX=1;entryY=0.5;entryDx=0;entryDy=0;dashed=1;fontSize=16;fontColor=#FF0000;strokeColor=#FF0000;strokeWidth=1;" edge="1" parent="1" source="Qtu6ctX9DmO8XfC7vcus-50" target="Qtu6ctX9DmO8XfC7vcus-15">
          <mxGeometry relative="1" as="geometry">
            <Array as="points">
              <mxPoint x="797" y="940" />
              <mxPoint x="990" y="940" />
              <mxPoint x="990" y="375" />
            </Array>
          </mxGeometry>
        </mxCell>
        <mxCell id="Qtu6ctX9DmO8XfC7vcus-50" value="" style="rounded=0;whiteSpace=wrap;html=1;fillColor=#76608a;strokeColor=#432D57;fontColor=#ffffff;" vertex="1" parent="1">
          <mxGeometry x="787" y="890" width="10" height="30" as="geometry" />
        </mxCell>
        <mxCell id="Qtu6ctX9DmO8XfC7vcus-52" style="edgeStyle=orthogonalEdgeStyle;rounded=1;orthogonalLoop=1;jettySize=auto;html=1;exitX=0.5;exitY=1;exitDx=0;exitDy=0;entryX=0;entryY=0;entryDx=0;entryDy=0;dashed=1;fontSize=16;fontColor=#FF0000;" edge="1" parent="1" source="Qtu6ctX9DmO8XfC7vcus-51" target="Qtu6ctX9DmO8XfC7vcus-49">
          <mxGeometry relative="1" as="geometry" />
        </mxCell>
        <mxCell id="Qtu6ctX9DmO8XfC7vcus-53" style="edgeStyle=orthogonalEdgeStyle;rounded=1;orthogonalLoop=1;jettySize=auto;html=1;exitX=0.5;exitY=1;exitDx=0;exitDy=0;entryX=1;entryY=0;entryDx=0;entryDy=0;dashed=1;fontSize=16;fontColor=#FF0000;" edge="1" parent="1" source="Qtu6ctX9DmO8XfC7vcus-51" target="Qtu6ctX9DmO8XfC7vcus-47">
          <mxGeometry relative="1" as="geometry" />
        </mxCell>
        <mxCell id="Qtu6ctX9DmO8XfC7vcus-63" style="rounded=1;orthogonalLoop=1;jettySize=auto;html=1;exitX=0.5;exitY=0;exitDx=0;exitDy=0;fontSize=16;fontColor=#FF0000;fillColor=#e51400;strokeColor=#FF0000;strokeWidth=2;" edge="1" parent="1" source="Qtu6ctX9DmO8XfC7vcus-51" target="Qtu6ctX9DmO8XfC7vcus-62">
          <mxGeometry relative="1" as="geometry" />
        </mxCell>
        <mxCell id="Qtu6ctX9DmO8XfC7vcus-51" value="pipe" style="rounded=1;whiteSpace=wrap;html=1;fillColor=#f0a30a;strokeColor=#BD7000;fontColor=#000000;" vertex="1" parent="1">
          <mxGeometry x="692" y="820" width="70" height="30" as="geometry" />
        </mxCell>
        <mxCell id="Qtu6ctX9DmO8XfC7vcus-54" value="MEM" style="text;html=1;strokeColor=none;fillColor=none;align=center;verticalAlign=middle;whiteSpace=wrap;rounded=0;dashed=1;fontColor=#FF0000;" vertex="1" parent="1">
          <mxGeometry x="650" y="825" width="40" height="20" as="geometry" />
        </mxCell>
        <mxCell id="Qtu6ctX9DmO8XfC7vcus-58" style="edgeStyle=orthogonalEdgeStyle;rounded=1;orthogonalLoop=1;jettySize=auto;html=1;exitX=0.5;exitY=0;exitDx=0;exitDy=0;entryX=0.5;entryY=1;entryDx=0;entryDy=0;dashed=1;fontSize=16;fontColor=#FF0000;" edge="1" parent="1" source="Qtu6ctX9DmO8XfC7vcus-56" target="Qtu6ctX9DmO8XfC7vcus-49">
          <mxGeometry relative="1" as="geometry" />
        </mxCell>
        <mxCell id="Qtu6ctX9DmO8XfC7vcus-56" value="response header" style="text;html=1;strokeColor=none;fillColor=none;align=center;verticalAlign=middle;whiteSpace=wrap;rounded=0;dashed=1;fontColor=#FF0000;" vertex="1" parent="1">
          <mxGeometry x="578" y="960" width="108" height="20" as="geometry" />
        </mxCell>
        <mxCell id="Qtu6ctX9DmO8XfC7vcus-59" value="" style="shape=singleArrow;whiteSpace=wrap;html=1;rounded=0;fontSize=16;fontColor=#FF0000;arrowWidth=0.3;arrowSize=0.2;" vertex="1" parent="1">
          <mxGeometry x="520" y="885" width="80" height="40" as="geometry" />
        </mxCell>
        <mxCell id="Qtu6ctX9DmO8XfC7vcus-61" value="SPLICE" style="text;html=1;align=center;verticalAlign=middle;resizable=0;points=[];autosize=1;strokeColor=none;fillColor=none;fontSize=16;fontColor=#FF0000;" vertex="1" parent="1">
          <mxGeometry x="520" y="865" width="70" height="20" as="geometry" />
        </mxCell>
        <mxCell id="Qtu6ctX9DmO8XfC7vcus-66" style="edgeStyle=none;rounded=1;orthogonalLoop=1;jettySize=auto;html=1;exitX=0.5;exitY=0;exitDx=0;exitDy=0;fontSize=16;fontColor=#FF0000;strokeColor=#FF0000;strokeWidth=2;" edge="1" parent="1" source="Qtu6ctX9DmO8XfC7vcus-62">
          <mxGeometry relative="1" as="geometry">
            <mxPoint x="655" y="340" as="targetPoint" />
          </mxGeometry>
        </mxCell>
        <mxCell id="Qtu6ctX9DmO8XfC7vcus-62" value="fuse_dev" style="rounded=1;whiteSpace=wrap;html=1;fillColor=#f0a30a;strokeColor=#BD7000;fontColor=#000000;" vertex="1" parent="1">
          <mxGeometry x="827" y="620" width="100" height="30" as="geometry" />
        </mxCell>
        <mxCell id="Qtu6ctX9DmO8XfC7vcus-64" value="SPLICE" style="text;html=1;align=center;verticalAlign=middle;resizable=0;points=[];autosize=1;strokeColor=none;fillColor=none;fontSize=16;fontColor=#FF0000;" vertex="1" parent="1">
          <mxGeometry x="800" y="730" width="70" height="20" as="geometry" />
        </mxCell>
        <mxCell id="Qtu6ctX9DmO8XfC7vcus-67" value="replace" style="text;html=1;align=center;verticalAlign=middle;resizable=0;points=[];autosize=1;strokeColor=none;fillColor=none;fontSize=16;fontColor=#FF0000;" vertex="1" parent="1">
          <mxGeometry x="772" y="480" width="70" height="20" as="geometry" />
        </mxCell>
      </root>
    </mxGraphModel>
  </diagram>
</mxfile>
